<?xml version="1.0" encoding="UTF-8" standalone="no"?>
<!DOCTYPE svg PUBLIC "-//W3C//DTD SVG 1.1//EN"
 "http://www.w3.org/Graphics/SVG/1.1/DTD/svg11.dtd">
<!-- Generated by graphviz version 2.40.1 (20161225.0304)
 -->
<!-- Title: twoDegreesRelationshipsDiagram Pages: 1 -->
<svg width="529pt" height="333pt"
 viewBox="0.00 0.00 529.00 332.70" xmlns="http://www.w3.org/2000/svg" xmlns:xlink="http://www.w3.org/1999/xlink">
<g id="graph0" class="graph" transform="scale(1 1) rotate(0) translate(4 328.7)">
<title>twoDegreesRelationshipsDiagram</title>
<polygon fill="#ffffff" stroke="transparent" points="-4,4 -4,-328.7 525,-328.7 525,4 -4,4"/>
<text text-anchor="middle" x="72.4936" y="-7.3" font-family="Helvetica,sans-Serif" font-size="11.00" fill="#000000">Generated by SchemaSpy</text>
<!-- article -->
<g id="node1" class="node">
<title>article</title>
<g id="a_node1"><a xlink:href="../../tables/article.html" xlink:title="article" target="_top">
<polygon fill="#ffffff" stroke="transparent" points="145,-38.2 145,-238.2 351,-238.2 351,-38.2 145,-38.2"/>
<polygon fill="#f5f5f5" stroke="transparent" points="147,-213.2 147,-236.2 349,-236.2 349,-213.2 147,-213.2"/>
<polygon fill="none" stroke="#000000" points="147,-213.2 147,-236.2 349,-236.2 349,-213.2 147,-213.2"/>
<text text-anchor="start" x="152" y="-222.3" font-family="Helvetica,sans-Serif" font-weight="bold" font-size="11.00" fill="#000000">article</text>
<text text-anchor="start" x="314.0437" y="-221.3" font-family="Helvetica,sans-Serif" font-size="11.00" fill="#000000">[table]</text>
<polygon fill="none" stroke="#000000" points="147,-191.2 147,-213.2 238,-213.2 238,-191.2 147,-191.2"/>
<image xlink:href="../../images/primaryKeys.png" width="11px" height="12px" preserveAspectRatio="xMinYMin meet" x="152" y="-208.2"/>
<text text-anchor="start" x="167" y="-198.3" font-family="Helvetica,sans-Serif" font-size="11.00" fill="#000000">id</text>
<polygon fill="none" stroke="#000000" points="238,-191.2 238,-213.2 349,-213.2 349,-191.2 238,-191.2"/>
<text text-anchor="start" x="241" y="-198.9" font-family="Helvetica,sans-Serif" font-size="11.00" fill="#000000">int[10]</text>
<polygon fill="none" stroke="#000000" points="147,-169.2 147,-191.2 238,-191.2 238,-169.2 147,-169.2"/>
<text text-anchor="start" x="167" y="-176.3" font-family="Helvetica,sans-Serif" font-size="11.00" fill="#000000">titre</text>
<polygon fill="none" stroke="#000000" points="238,-169.2 238,-191.2 349,-191.2 349,-169.2 238,-169.2"/>
<text text-anchor="start" x="241" y="-176.9" font-family="Helvetica,sans-Serif" font-size="11.00" fill="#000000">varchar[200]</text>
<polygon fill="none" stroke="#000000" points="147,-147.2 147,-169.2 238,-169.2 238,-147.2 147,-147.2"/>
<text text-anchor="start" x="167" y="-154.3" font-family="Helvetica,sans-Serif" font-size="11.00" fill="#000000">contenu</text>
<polygon fill="none" stroke="#000000" points="238,-147.2 238,-169.2 349,-169.2 349,-147.2 238,-147.2"/>
<text text-anchor="start" x="240.6115" y="-154.9" font-family="Helvetica,sans-Serif" font-size="11.00" fill="#000000">longtext[2147483647]</text>
<polygon fill="none" stroke="#000000" points="147,-125.2 147,-147.2 238,-147.2 238,-125.2 147,-125.2"/>
<text text-anchor="start" x="167" y="-132.3" font-family="Helvetica,sans-Serif" font-size="11.00" fill="#000000">created_at</text>
<polygon fill="none" stroke="#000000" points="238,-125.2 238,-147.2 349,-147.2 349,-125.2 238,-125.2"/>
<text text-anchor="start" x="241" y="-132.9" font-family="Helvetica,sans-Serif" font-size="11.00" fill="#000000">datetime[19]</text>
<polygon fill="none" stroke="#000000" points="147,-103.2 147,-125.2 238,-125.2 238,-103.2 147,-103.2"/>
<text text-anchor="start" x="167" y="-110.3" font-family="Helvetica,sans-Serif" font-size="11.00" fill="#000000">slug</text>
<polygon fill="none" stroke="#000000" points="238,-103.2 238,-125.2 349,-125.2 349,-103.2 238,-103.2"/>
<text text-anchor="start" x="241" y="-110.9" font-family="Helvetica,sans-Serif" font-size="11.00" fill="#000000">varchar[255]</text>
<polygon fill="#ffffff" stroke="transparent" points="147,-81.2 147,-103.2 238,-103.2 238,-81.2 147,-81.2"/>
<polygon fill="none" stroke="#000000" points="147,-81.2 147,-103.2 238,-103.2 238,-81.2 147,-81.2"/>
<image xlink:href="../../images/foreignKeys.png" width="11px" height="12px" preserveAspectRatio="xMinYMin meet" x="152" y="-98.2"/>
<text text-anchor="start" x="167" y="-88.3" font-family="Helvetica,sans-Serif" font-size="11.00" fill="#000000">categorie_id</text>
<polygon fill="none" stroke="#000000" points="238,-81.2 238,-103.2 349,-103.2 349,-81.2 238,-81.2"/>
<text text-anchor="start" x="241" y="-88.9" font-family="Helvetica,sans-Serif" font-size="11.00" fill="#000000">int[10]</text>
<polygon fill="none" stroke="#000000" points="147,-59.2 147,-81.2 238,-81.2 238,-59.2 147,-59.2"/>
<text text-anchor="start" x="167" y="-66.3" font-family="Helvetica,sans-Serif" font-size="11.00" fill="#000000">is_publie</text>
<polygon fill="none" stroke="#000000" points="238,-59.2 238,-81.2 349,-81.2 349,-59.2 238,-59.2"/>
<text text-anchor="start" x="241" y="-66.9" font-family="Helvetica,sans-Serif" font-size="11.00" fill="#000000">bit[1]</text>
<polygon fill="#ffffff" stroke="transparent" points="147,-40.2 147,-59.2 178,-59.2 178,-40.2 147,-40.2"/>
<polygon fill="none" stroke="#000000" points="147,-40.2 147,-59.2 178,-59.2 178,-40.2 147,-40.2"/>
<text text-anchor="start" x="150" y="-46.3" font-family="Helvetica,sans-Serif" font-size="11.00" fill="#000000">&lt; 1</text>
<polygon fill="#ffffff" stroke="transparent" points="178,-40.2 178,-59.2 238,-59.2 238,-40.2 178,-40.2"/>
<polygon fill="none" stroke="#000000" points="178,-40.2 178,-59.2 238,-59.2 238,-40.2 178,-40.2"/>
<text text-anchor="start" x="190.3807" y="-46.3" font-family="Helvetica,sans-Serif" font-size="11.00" fill="#000000">101 rows</text>
<polygon fill="#ffffff" stroke="transparent" points="238,-40.2 238,-59.2 349,-59.2 349,-40.2 238,-40.2"/>
<polygon fill="none" stroke="#000000" points="238,-40.2 238,-59.2 349,-59.2 349,-40.2 238,-40.2"/>
<text text-anchor="start" x="330.4053" y="-46.3" font-family="Helvetica,sans-Serif" font-size="11.00" fill="#000000">1 &gt;</text>
<polygon fill="none" stroke="#000000" stroke-width="2" points="146,-39.2 146,-237.2 350,-237.2 350,-39.2 146,-39.2"/>
</a>
</g>
</g>
<!-- categorie -->
<g id="node2" class="node">
<title>categorie</title>
<g id="a_node2"><a xlink:href="../../tables/categorie.html" xlink:title="categorie" target="_top">
<polygon fill="#ffffff" stroke="transparent" points="8,-43.7 8,-126.7 96,-126.7 96,-43.7 8,-43.7"/>
<polygon fill="#f5f5f5" stroke="transparent" points="8,-103.2 8,-126.2 96,-126.2 96,-103.2 8,-103.2"/>
<polygon fill="none" stroke="#000000" points="8,-103.2 8,-126.2 96,-126.2 96,-103.2 8,-103.2"/>
<text text-anchor="start" x="12.8829" y="-112.3" font-family="Helvetica,sans-Serif" font-weight="bold" font-size="11.00" fill="#000000">categorie</text>
<text text-anchor="start" x="61.5219" y="-111.3" font-family="Helvetica,sans-Serif" font-size="11.00" fill="#000000">[table]</text>
<polygon fill="none" stroke="#000000" points="8,-81.2 8,-103.2 96,-103.2 96,-81.2 8,-81.2"/>
<image xlink:href="../../images/primaryKeys.png" width="11px" height="12px" preserveAspectRatio="xMinYMin meet" x="13" y="-98.2"/>
<text text-anchor="start" x="35" y="-88.3" font-family="Helvetica,sans-Serif" font-size="11.00" fill="#000000">id</text>
<polygon fill="none" stroke="#000000" points="8,-62.2 8,-81.2 96,-81.2 96,-62.2 8,-62.2"/>
<text text-anchor="start" x="11" y="-68.3" font-family="Helvetica,sans-Serif" font-size="11.00" fill="#000000">...</text>
<polygon fill="#ffffff" stroke="transparent" points="8,-43.2 8,-62.2 28,-62.2 28,-43.2 8,-43.2"/>
<polygon fill="none" stroke="#000000" points="8,-43.2 8,-62.2 28,-62.2 28,-43.2 8,-43.2"/>
<text text-anchor="start" x="11" y="-49.3" font-family="Helvetica,sans-Serif" font-size="11.00" fill="#000000"> &#160;</text>
<polygon fill="#ffffff" stroke="transparent" points="28,-43.2 28,-62.2 70,-62.2 70,-43.2 28,-43.2"/>
<polygon fill="none" stroke="#000000" points="28,-43.2 28,-62.2 70,-62.2 70,-43.2 28,-43.2"/>
<text text-anchor="start" x="34.6105" y="-49.3" font-family="Helvetica,sans-Serif" font-size="11.00" fill="#000000">9 rows</text>
<polygon fill="#ffffff" stroke="transparent" points="70,-43.2 70,-62.2 96,-62.2 96,-43.2 70,-43.2"/>
<polygon fill="none" stroke="#000000" points="70,-43.2 70,-62.2 96,-62.2 96,-43.2 70,-43.2"/>
<text text-anchor="start" x="77.4053" y="-49.3" font-family="Helvetica,sans-Serif" font-size="11.00" fill="#000000">1 &gt;</text>
</a>
</g>
</g>
<!-- article&#45;&gt;categorie -->
<g id="edge1" class="edge">
<title>article:w&#45;&gt;categorie:e</title>
<path fill="none" stroke="#000000" d="M132.276,-92.2C120.2815,-92.2 112.8229,-92.2 96,-92.2"/>
<polygon fill="#000000" stroke="#000000" points="139,-92.2001 147,-95.8 143,-92.2 147,-92.2 147,-92.2 147,-92.2 143,-92.2 147,-88.6 139,-92.2001 139,-92.2001"/>
<ellipse fill="none" stroke="#000000" cx="135.8" cy="-92.2001" rx="3.2" ry="3.2"/>
</g>
<!-- commentaire -->
<g id="node3" class="node">
<title>commentaire</title>
<g id="a_node3"><a xlink:href="../../tables/commentaire.html" xlink:title="commentaire" target="_top">
<polygon fill="#ffffff" stroke="transparent" points="400,-184.7 400,-311.7 513,-311.7 513,-184.7 400,-184.7"/>
<polygon fill="#f5f5f5" stroke="transparent" points="400.5,-288.2 400.5,-311.2 513.5,-311.2 513.5,-288.2 400.5,-288.2"/>
<polygon fill="none" stroke="#000000" points="400.5,-288.2 400.5,-311.2 513.5,-311.2 513.5,-288.2 400.5,-288.2"/>
<text text-anchor="start" x="405.5" y="-297.3" font-family="Helvetica,sans-Serif" font-weight="bold" font-size="11.00" fill="#000000">commentaire</text>
<text text-anchor="start" x="478.5437" y="-296.3" font-family="Helvetica,sans-Serif" font-size="11.00" fill="#000000">[table]</text>
<polygon fill="none" stroke="#000000" points="400.5,-266.2 400.5,-288.2 513.5,-288.2 513.5,-266.2 400.5,-266.2"/>
<image xlink:href="../../images/primaryKeys.png" width="11px" height="12px" preserveAspectRatio="xMinYMin meet" x="405.5" y="-283.2"/>
<text text-anchor="start" x="420.5" y="-273.3" font-family="Helvetica,sans-Serif" font-size="11.00" fill="#000000">id</text>
<polygon fill="#ffffff" stroke="transparent" points="400.5,-244.2 400.5,-266.2 513.5,-266.2 513.5,-244.2 400.5,-244.2"/>
<polygon fill="none" stroke="#000000" points="400.5,-244.2 400.5,-266.2 513.5,-266.2 513.5,-244.2 400.5,-244.2"/>
<image xlink:href="../../images/foreignKeys.png" width="11px" height="12px" preserveAspectRatio="xMinYMin meet" x="405.5" y="-261.2"/>
<text text-anchor="start" x="420.5" y="-251.3" font-family="Helvetica,sans-Serif" font-size="11.00" fill="#000000">utilisateur_id_id</text>
<polygon fill="#ffffff" stroke="transparent" points="400.5,-222.2 400.5,-244.2 513.5,-244.2 513.5,-222.2 400.5,-222.2"/>
<polygon fill="none" stroke="#000000" points="400.5,-222.2 400.5,-244.2 513.5,-244.2 513.5,-222.2 400.5,-222.2"/>
<image xlink:href="../../images/foreignKeys.png" width="11px" height="12px" preserveAspectRatio="xMinYMin meet" x="405.5" y="-239.2"/>
<text text-anchor="start" x="420.5" y="-229.3" font-family="Helvetica,sans-Serif" font-size="11.00" fill="#000000">article_id_id</text>
<polygon fill="none" stroke="#000000" points="400.5,-203.2 400.5,-222.2 513.5,-222.2 513.5,-203.2 400.5,-203.2"/>
<text text-anchor="start" x="403.5" y="-209.3" font-family="Helvetica,sans-Serif" font-size="11.00" fill="#000000">...</text>
<polygon fill="#ffffff" stroke="transparent" points="400.5,-184.2 400.5,-203.2 436.5,-203.2 436.5,-184.2 400.5,-184.2"/>
<polygon fill="none" stroke="#000000" points="400.5,-184.2 400.5,-203.2 436.5,-203.2 436.5,-184.2 400.5,-184.2"/>
<text text-anchor="start" x="403.5" y="-190.3" font-family="Helvetica,sans-Serif" font-size="11.00" fill="#000000">&lt; 2</text>
<polygon fill="#ffffff" stroke="transparent" points="436.5,-184.2 436.5,-203.2 493.5,-203.2 493.5,-184.2 436.5,-184.2"/>
<polygon fill="none" stroke="#000000" points="436.5,-184.2 436.5,-203.2 493.5,-203.2 493.5,-184.2 436.5,-184.2"/>
<text text-anchor="start" x="445.8807" y="-190.3" font-family="Helvetica,sans-Serif" font-size="11.00" fill="#000000">141 rows</text>
<polygon fill="#ffffff" stroke="transparent" points="493.5,-184.2 493.5,-203.2 513.5,-203.2 513.5,-184.2 493.5,-184.2"/>
<polygon fill="none" stroke="#000000" points="493.5,-184.2 493.5,-203.2 513.5,-203.2 513.5,-184.2 493.5,-184.2"/>
<text text-anchor="start" x="504.3862" y="-190.3" font-family="Helvetica,sans-Serif" font-size="11.00" fill="#000000"> &#160;</text>
</a>
</g>
</g>
<!-- commentaire&#45;&gt;article -->
<g id="edge2" class="edge">
<title>commentaire:w&#45;&gt;article:e</title>
<path fill="none" stroke="#000000" d="M386.4805,-229.3988C373.2585,-221.1209 369.8716,-202.2 349,-202.2"/>
<polygon fill="#000000" stroke="#000000" points="392.7788,-231.1064 399.5579,-236.6745 396.6394,-232.1532 400.5,-233.2 400.5,-233.2 400.5,-233.2 396.6394,-232.1532 401.4421,-229.7255 392.7788,-231.1064 392.7788,-231.1064"/>
<ellipse fill="none" stroke="#000000" cx="389.6903" cy="-230.269" rx="3.2" ry="3.2"/>
</g>
<!-- utilisateur -->
<g id="node4" class="node">
<title>utilisateur</title>
<g id="a_node4"><a xlink:href="../../tables/utilisateur.html" xlink:title="utilisateur" target="_top">
<polygon fill="#ffffff" stroke="transparent" points="203,-259.7 203,-320.7 293,-320.7 293,-259.7 203,-259.7"/>
<polygon fill="#f5f5f5" stroke="transparent" points="203,-297.2 203,-320.2 293,-320.2 293,-297.2 203,-297.2"/>
<polygon fill="none" stroke="#000000" points="203,-297.2 203,-320.2 293,-320.2 293,-297.2 203,-297.2"/>
<text text-anchor="start" x="207.971" y="-306.3" font-family="Helvetica,sans-Serif" font-weight="bold" font-size="11.00" fill="#000000">utilisateur</text>
<text text-anchor="start" x="258.5219" y="-305.3" font-family="Helvetica,sans-Serif" font-size="11.00" fill="#000000">[table]</text>
<polygon fill="none" stroke="#000000" points="203,-278.2 203,-297.2 293,-297.2 293,-278.2 203,-278.2"/>
<text text-anchor="start" x="206" y="-284.3" font-family="Helvetica,sans-Serif" font-size="11.00" fill="#000000">...</text>
<polygon fill="#ffffff" stroke="transparent" points="203,-259.2 203,-278.2 221,-278.2 221,-259.2 203,-259.2"/>
<polygon fill="none" stroke="#000000" points="203,-259.2 203,-278.2 221,-278.2 221,-259.2 203,-259.2"/>
<text text-anchor="start" x="206" y="-265.3" font-family="Helvetica,sans-Serif" font-size="11.00" fill="#000000"> &#160;</text>
<polygon fill="#ffffff" stroke="transparent" points="221,-259.2 221,-278.2 268,-278.2 268,-259.2 221,-259.2"/>
<polygon fill="none" stroke="#000000" points="221,-259.2 221,-278.2 268,-278.2 268,-259.2 221,-259.2"/>
<text text-anchor="start" x="226.4956" y="-265.3" font-family="Helvetica,sans-Serif" font-size="11.00" fill="#000000">11 rows</text>
<polygon fill="#ffffff" stroke="transparent" points="268,-259.2 268,-278.2 293,-278.2 293,-259.2 268,-259.2"/>
<polygon fill="none" stroke="#000000" points="268,-259.2 268,-278.2 293,-278.2 293,-259.2 268,-259.2"/>
<text text-anchor="start" x="274.4053" y="-265.3" font-family="Helvetica,sans-Serif" font-size="11.00" fill="#000000">1 &gt;</text>
</a>
</g>
</g>
<!-- commentaire&#45;&gt;utilisateur -->
<g id="edge3" class="edge">
<title>commentaire:w&#45;&gt;utilisateur:e</title>
<path fill="none" stroke="#000000" d="M386.0318,-256.1928C348.5372,-261.594 337.5921,-287.2 293,-287.2"/>
<polygon fill="#000000" stroke="#000000" points="392.5188,-255.7477 400.7465,-258.7916 396.5094,-255.4739 400.5,-255.2 400.5,-255.2 400.5,-255.2 396.5094,-255.4739 400.2535,-251.6084 392.5188,-255.7477 392.5188,-255.7477"/>
<ellipse fill="none" stroke="#000000" cx="389.3263" cy="-255.9668" rx="3.2" ry="3.2"/>
</g>
</g>
</svg>
