<?xml version="1.0" encoding="UTF-8" standalone="no"?>
<!DOCTYPE svg PUBLIC "-//W3C//DTD SVG 1.1//EN"
 "http://www.w3.org/Graphics/SVG/1.1/DTD/svg11.dtd">
<!-- Generated by graphviz version 2.40.1 (20161225.0304)
 -->
<!-- Title: twoDegreesRelationshipsDiagram Pages: 1 -->
<svg width="530pt" height="259pt"
 viewBox="0.00 0.00 530.00 259.20" xmlns="http://www.w3.org/2000/svg" xmlns:xlink="http://www.w3.org/1999/xlink">
<g id="graph0" class="graph" transform="scale(1 1) rotate(0) translate(4 255.2)">
<title>twoDegreesRelationshipsDiagram</title>
<polygon fill="#ffffff" stroke="transparent" points="-4,4 -4,-255.2 526,-255.2 526,4 -4,4"/>
<text text-anchor="middle" x="72.4936" y="-7.3" font-family="Helvetica,sans-Serif" font-size="11.00" fill="#000000">Generated by SchemaSpy</text>
<!-- article -->
<g id="node1" class="node">
<title>article</title>
<g id="a_node1"><a xlink:href="../../tables/article.html" xlink:title="article" target="_top">
<polygon fill="#ffffff" stroke="transparent" points="145,-38.2 145,-143.2 237,-143.2 237,-38.2 145,-38.2"/>
<polygon fill="#f5f5f5" stroke="transparent" points="145,-119.7 145,-142.7 237,-142.7 237,-119.7 145,-119.7"/>
<polygon fill="none" stroke="#000000" points="145,-119.7 145,-142.7 237,-142.7 237,-119.7 145,-119.7"/>
<text text-anchor="start" x="150" y="-128.8" font-family="Helvetica,sans-Serif" font-weight="bold" font-size="11.00" fill="#000000">article</text>
<text text-anchor="start" x="202.0437" y="-127.8" font-family="Helvetica,sans-Serif" font-size="11.00" fill="#000000">[table]</text>
<polygon fill="none" stroke="#000000" points="145,-97.7 145,-119.7 237,-119.7 237,-97.7 145,-97.7"/>
<image xlink:href="../../images/primaryKeys.png" width="11px" height="12px" preserveAspectRatio="xMinYMin meet" x="150" y="-114.7"/>
<text text-anchor="start" x="166" y="-104.8" font-family="Helvetica,sans-Serif" font-size="11.00" fill="#000000">id</text>
<polygon fill="#ffffff" stroke="transparent" points="145,-75.7 145,-97.7 237,-97.7 237,-75.7 145,-75.7"/>
<polygon fill="none" stroke="#000000" points="145,-75.7 145,-97.7 237,-97.7 237,-75.7 145,-75.7"/>
<image xlink:href="../../images/foreignKeys.png" width="11px" height="12px" preserveAspectRatio="xMinYMin meet" x="150" y="-92.7"/>
<text text-anchor="start" x="166" y="-82.8" font-family="Helvetica,sans-Serif" font-size="11.00" fill="#000000">categorie_id</text>
<polygon fill="none" stroke="#000000" points="145,-56.7 145,-75.7 237,-75.7 237,-56.7 145,-56.7"/>
<text text-anchor="start" x="148" y="-62.8" font-family="Helvetica,sans-Serif" font-size="11.00" fill="#000000">...</text>
<polygon fill="#ffffff" stroke="transparent" points="145,-37.7 145,-56.7 166,-56.7 166,-37.7 145,-37.7"/>
<polygon fill="none" stroke="#000000" points="145,-37.7 145,-56.7 166,-56.7 166,-37.7 145,-37.7"/>
<text text-anchor="start" x="147.7027" y="-43.8" font-family="Helvetica,sans-Serif" font-size="11.00" fill="#000000">&lt; 1</text>
<polygon fill="#ffffff" stroke="transparent" points="166,-37.7 166,-56.7 216,-56.7 216,-37.7 166,-37.7"/>
<polygon fill="none" stroke="#000000" points="166,-37.7 166,-56.7 216,-56.7 216,-37.7 166,-37.7"/>
<text text-anchor="start" x="168.6904" y="-43.8" font-family="Helvetica,sans-Serif" font-size="11.00" fill="#000000">101 rows</text>
<polygon fill="#ffffff" stroke="transparent" points="216,-37.7 216,-56.7 237,-56.7 237,-37.7 216,-37.7"/>
<polygon fill="none" stroke="#000000" points="216,-37.7 216,-56.7 237,-56.7 237,-37.7 216,-37.7"/>
<text text-anchor="start" x="218.7027" y="-43.8" font-family="Helvetica,sans-Serif" font-size="11.00" fill="#000000">1 &gt;</text>
</a>
</g>
</g>
<!-- categorie -->
<g id="node2" class="node">
<title>categorie</title>
<g id="a_node2"><a xlink:href="../../tables/categorie.html" xlink:title="categorie" target="_top">
<polygon fill="#ffffff" stroke="transparent" points="8,-59.2 8,-120.2 96,-120.2 96,-59.2 8,-59.2"/>
<polygon fill="#f5f5f5" stroke="transparent" points="8,-96.7 8,-119.7 96,-119.7 96,-96.7 8,-96.7"/>
<polygon fill="none" stroke="#000000" points="8,-96.7 8,-119.7 96,-119.7 96,-96.7 8,-96.7"/>
<text text-anchor="start" x="12.8829" y="-105.8" font-family="Helvetica,sans-Serif" font-weight="bold" font-size="11.00" fill="#000000">categorie</text>
<text text-anchor="start" x="61.5219" y="-104.8" font-family="Helvetica,sans-Serif" font-size="11.00" fill="#000000">[table]</text>
<polygon fill="none" stroke="#000000" points="8,-77.7 8,-96.7 96,-96.7 96,-77.7 8,-77.7"/>
<text text-anchor="start" x="11" y="-83.8" font-family="Helvetica,sans-Serif" font-size="11.00" fill="#000000">...</text>
<polygon fill="#ffffff" stroke="transparent" points="8,-58.7 8,-77.7 28,-77.7 28,-58.7 8,-58.7"/>
<polygon fill="none" stroke="#000000" points="8,-58.7 8,-77.7 28,-77.7 28,-58.7 8,-58.7"/>
<text text-anchor="start" x="11" y="-64.8" font-family="Helvetica,sans-Serif" font-size="11.00" fill="#000000"> &#160;</text>
<polygon fill="#ffffff" stroke="transparent" points="28,-58.7 28,-77.7 70,-77.7 70,-58.7 28,-58.7"/>
<polygon fill="none" stroke="#000000" points="28,-58.7 28,-77.7 70,-77.7 70,-58.7 28,-58.7"/>
<text text-anchor="start" x="34.6105" y="-64.8" font-family="Helvetica,sans-Serif" font-size="11.00" fill="#000000">9 rows</text>
<polygon fill="#ffffff" stroke="transparent" points="70,-58.7 70,-77.7 96,-77.7 96,-58.7 70,-58.7"/>
<polygon fill="none" stroke="#000000" points="70,-58.7 70,-77.7 96,-77.7 96,-58.7 70,-58.7"/>
<text text-anchor="start" x="77.4053" y="-64.8" font-family="Helvetica,sans-Serif" font-size="11.00" fill="#000000">1 &gt;</text>
</a>
</g>
</g>
<!-- article&#45;&gt;categorie -->
<g id="edge1" class="edge">
<title>article:w&#45;&gt;categorie:e</title>
<path fill="none" stroke="#000000" d="M130.4909,-86.7C119.1774,-86.7 111.9931,-86.7 96,-86.7"/>
<polygon fill="#000000" stroke="#000000" points="137,-86.7001 145,-90.3 141,-86.7 145,-86.7 145,-86.7 145,-86.7 141,-86.7 145,-83.1 137,-86.7001 137,-86.7001"/>
<ellipse fill="none" stroke="#000000" cx="133.8" cy="-86.7001" rx="3.2" ry="3.2"/>
</g>
<!-- commentaire -->
<g id="node3" class="node">
<title>commentaire</title>
<g id="a_node3"><a xlink:href="../../tables/commentaire.html" xlink:title="commentaire" target="_top">
<polygon fill="#ffffff" stroke="transparent" points="286,-73.7 286,-229.7 514,-229.7 514,-73.7 286,-73.7"/>
<polygon fill="#f5f5f5" stroke="transparent" points="288,-204.7 288,-227.7 512,-227.7 512,-204.7 288,-204.7"/>
<polygon fill="none" stroke="#000000" points="288,-204.7 288,-227.7 512,-227.7 512,-204.7 288,-204.7"/>
<text text-anchor="start" x="293" y="-213.8" font-family="Helvetica,sans-Serif" font-weight="bold" font-size="11.00" fill="#000000">commentaire</text>
<text text-anchor="start" x="477.0437" y="-212.8" font-family="Helvetica,sans-Serif" font-size="11.00" fill="#000000">[table]</text>
<polygon fill="none" stroke="#000000" points="288,-182.7 288,-204.7 401,-204.7 401,-182.7 288,-182.7"/>
<image xlink:href="../../images/primaryKeys.png" width="11px" height="12px" preserveAspectRatio="xMinYMin meet" x="293" y="-199.7"/>
<text text-anchor="start" x="308" y="-189.8" font-family="Helvetica,sans-Serif" font-size="11.00" fill="#000000">id</text>
<polygon fill="none" stroke="#000000" points="401,-182.7 401,-204.7 512,-204.7 512,-182.7 401,-182.7"/>
<text text-anchor="start" x="404" y="-190.4" font-family="Helvetica,sans-Serif" font-size="11.00" fill="#000000">int[10]</text>
<polygon fill="#ffffff" stroke="transparent" points="288,-160.7 288,-182.7 401,-182.7 401,-160.7 288,-160.7"/>
<polygon fill="none" stroke="#000000" points="288,-160.7 288,-182.7 401,-182.7 401,-160.7 288,-160.7"/>
<image xlink:href="../../images/foreignKeys.png" width="11px" height="12px" preserveAspectRatio="xMinYMin meet" x="293" y="-177.7"/>
<text text-anchor="start" x="308" y="-167.8" font-family="Helvetica,sans-Serif" font-size="11.00" fill="#000000">utilisateur_id_id</text>
<polygon fill="none" stroke="#000000" points="401,-160.7 401,-182.7 512,-182.7 512,-160.7 401,-160.7"/>
<text text-anchor="start" x="404" y="-168.4" font-family="Helvetica,sans-Serif" font-size="11.00" fill="#000000">int[10]</text>
<polygon fill="#ffffff" stroke="transparent" points="288,-138.7 288,-160.7 401,-160.7 401,-138.7 288,-138.7"/>
<polygon fill="none" stroke="#000000" points="288,-138.7 288,-160.7 401,-160.7 401,-138.7 288,-138.7"/>
<image xlink:href="../../images/foreignKeys.png" width="11px" height="12px" preserveAspectRatio="xMinYMin meet" x="293" y="-155.7"/>
<text text-anchor="start" x="308" y="-145.8" font-family="Helvetica,sans-Serif" font-size="11.00" fill="#000000">article_id_id</text>
<polygon fill="none" stroke="#000000" points="401,-138.7 401,-160.7 512,-160.7 512,-138.7 401,-138.7"/>
<text text-anchor="start" x="404" y="-146.4" font-family="Helvetica,sans-Serif" font-size="11.00" fill="#000000">int[10]</text>
<polygon fill="none" stroke="#000000" points="288,-116.7 288,-138.7 401,-138.7 401,-116.7 288,-116.7"/>
<text text-anchor="start" x="308" y="-123.8" font-family="Helvetica,sans-Serif" font-size="11.00" fill="#000000">contenu</text>
<polygon fill="none" stroke="#000000" points="401,-116.7 401,-138.7 512,-138.7 512,-116.7 401,-116.7"/>
<text text-anchor="start" x="403.6115" y="-124.4" font-family="Helvetica,sans-Serif" font-size="11.00" fill="#000000">longtext[2147483647]</text>
<polygon fill="none" stroke="#000000" points="288,-94.7 288,-116.7 401,-116.7 401,-94.7 288,-94.7"/>
<text text-anchor="start" x="308" y="-101.8" font-family="Helvetica,sans-Serif" font-size="11.00" fill="#000000">create_at</text>
<polygon fill="none" stroke="#000000" points="401,-94.7 401,-116.7 512,-116.7 512,-94.7 401,-94.7"/>
<text text-anchor="start" x="404" y="-102.4" font-family="Helvetica,sans-Serif" font-size="11.00" fill="#000000">datetime[19]</text>
<polygon fill="#ffffff" stroke="transparent" points="288,-75.7 288,-94.7 330,-94.7 330,-75.7 288,-75.7"/>
<polygon fill="none" stroke="#000000" points="288,-75.7 288,-94.7 330,-94.7 330,-75.7 288,-75.7"/>
<text text-anchor="start" x="291" y="-81.8" font-family="Helvetica,sans-Serif" font-size="11.00" fill="#000000">&lt; 2</text>
<polygon fill="#ffffff" stroke="transparent" points="330,-75.7 330,-94.7 401,-94.7 401,-75.7 330,-75.7"/>
<polygon fill="none" stroke="#000000" points="330,-75.7 330,-94.7 401,-94.7 401,-75.7 330,-75.7"/>
<text text-anchor="start" x="353.3807" y="-81.8" font-family="Helvetica,sans-Serif" font-size="11.00" fill="#000000">141 rows</text>
<polygon fill="#ffffff" stroke="transparent" points="401,-75.7 401,-94.7 512,-94.7 512,-75.7 401,-75.7"/>
<polygon fill="none" stroke="#000000" points="401,-75.7 401,-94.7 512,-94.7 512,-75.7 401,-75.7"/>
<text text-anchor="start" x="493.4053" y="-81.8" font-family="Helvetica,sans-Serif" font-size="11.00" fill="#000000">0 &gt;</text>
<polygon fill="none" stroke="#000000" stroke-width="2" points="287,-74.7 287,-228.7 513,-228.7 513,-74.7 287,-74.7"/>
</a>
</g>
</g>
<!-- commentaire&#45;&gt;article -->
<g id="edge2" class="edge">
<title>commentaire:w&#45;&gt;article:e</title>
<path fill="none" stroke="#000000" d="M274.1568,-145.3123C260.3325,-134.7354 260.1756,-108.7 237,-108.7"/>
<polygon fill="#000000" stroke="#000000" points="280.3739,-147.2828 286.9123,-153.1317 284.1869,-148.4914 288,-149.7 288,-149.7 288,-149.7 284.1869,-148.4914 289.0877,-146.2683 280.3739,-147.2828 280.3739,-147.2828"/>
<ellipse fill="none" stroke="#000000" cx="277.3235" cy="-146.3159" rx="3.2" ry="3.2"/>
</g>
<!-- utilisateur -->
<g id="node4" class="node">
<title>utilisateur</title>
<g id="a_node4"><a xlink:href="../../tables/utilisateur.html" xlink:title="utilisateur" target="_top">
<polygon fill="#ffffff" stroke="transparent" points="146,-164.2 146,-247.2 236,-247.2 236,-164.2 146,-164.2"/>
<polygon fill="#f5f5f5" stroke="transparent" points="146,-223.7 146,-246.7 236,-246.7 236,-223.7 146,-223.7"/>
<polygon fill="none" stroke="#000000" points="146,-223.7 146,-246.7 236,-246.7 236,-223.7 146,-223.7"/>
<text text-anchor="start" x="150.971" y="-232.8" font-family="Helvetica,sans-Serif" font-weight="bold" font-size="11.00" fill="#000000">utilisateur</text>
<text text-anchor="start" x="201.5219" y="-231.8" font-family="Helvetica,sans-Serif" font-size="11.00" fill="#000000">[table]</text>
<polygon fill="none" stroke="#000000" points="146,-201.7 146,-223.7 236,-223.7 236,-201.7 146,-201.7"/>
<image xlink:href="../../images/primaryKeys.png" width="11px" height="12px" preserveAspectRatio="xMinYMin meet" x="151" y="-218.7"/>
<text text-anchor="start" x="172" y="-208.8" font-family="Helvetica,sans-Serif" font-size="11.00" fill="#000000">id</text>
<polygon fill="none" stroke="#000000" points="146,-182.7 146,-201.7 236,-201.7 236,-182.7 146,-182.7"/>
<text text-anchor="start" x="149" y="-188.8" font-family="Helvetica,sans-Serif" font-size="11.00" fill="#000000">...</text>
<polygon fill="#ffffff" stroke="transparent" points="146,-163.7 146,-182.7 164,-182.7 164,-163.7 146,-163.7"/>
<polygon fill="none" stroke="#000000" points="146,-163.7 146,-182.7 164,-182.7 164,-163.7 146,-163.7"/>
<text text-anchor="start" x="149" y="-169.8" font-family="Helvetica,sans-Serif" font-size="11.00" fill="#000000"> &#160;</text>
<polygon fill="#ffffff" stroke="transparent" points="164,-163.7 164,-182.7 211,-182.7 211,-163.7 164,-163.7"/>
<polygon fill="none" stroke="#000000" points="164,-163.7 164,-182.7 211,-182.7 211,-163.7 164,-163.7"/>
<text text-anchor="start" x="169.4956" y="-169.8" font-family="Helvetica,sans-Serif" font-size="11.00" fill="#000000">11 rows</text>
<polygon fill="#ffffff" stroke="transparent" points="211,-163.7 211,-182.7 236,-182.7 236,-163.7 211,-163.7"/>
<polygon fill="none" stroke="#000000" points="211,-163.7 211,-182.7 236,-182.7 236,-163.7 211,-163.7"/>
<text text-anchor="start" x="217.4053" y="-169.8" font-family="Helvetica,sans-Serif" font-size="11.00" fill="#000000">1 &gt;</text>
</a>
</g>
</g>
<!-- commentaire&#45;&gt;utilisateur -->
<g id="edge3" class="edge">
<title>commentaire:w&#45;&gt;utilisateur:e</title>
<path fill="none" stroke="#000000" d="M273.9495,-176.0877C259.8593,-186.6646 259.4527,-212.7 236,-212.7"/>
<polygon fill="#000000" stroke="#000000" points="280.3637,-174.0847 289.0731,-175.1363 284.1818,-172.8924 288,-171.7 288,-171.7 288,-171.7 284.1818,-172.8924 286.9269,-168.2637 280.3637,-174.0847 280.3637,-174.0847"/>
<ellipse fill="none" stroke="#000000" cx="277.3092" cy="-175.0386" rx="3.2" ry="3.2"/>
</g>
</g>
</svg>
