<?xml version="1.0" encoding="UTF-8" standalone="no"?>
<!DOCTYPE svg PUBLIC "-//W3C//DTD SVG 1.1//EN"
 "http://www.w3.org/Graphics/SVG/1.1/DTD/svg11.dtd">
<!-- Generated by graphviz version 2.40.1 (20161225.0304)
 -->
<!-- Title: oneDegreeRelationshipsDiagram Pages: 1 -->
<svg width="393pt" height="259pt"
 viewBox="0.00 0.00 393.00 259.20" xmlns="http://www.w3.org/2000/svg" xmlns:xlink="http://www.w3.org/1999/xlink">
<g id="graph0" class="graph" transform="scale(1 1) rotate(0) translate(4 255.2)">
<title>oneDegreeRelationshipsDiagram</title>
<polygon fill="#ffffff" stroke="transparent" points="-4,4 -4,-255.2 389,-255.2 389,4 -4,4"/>
<text text-anchor="middle" x="72.4936" y="-7.3" font-family="Helvetica,sans-Serif" font-size="11.00" fill="#000000">Generated by SchemaSpy</text>
<!-- commentaire -->
<g id="node1" class="node">
<title>commentaire</title>
<g id="a_node1"><a xlink:href="../../tables/commentaire.html" xlink:title="commentaire" target="_top">
<polygon fill="#ffffff" stroke="transparent" points="149,-73.7 149,-229.7 377,-229.7 377,-73.7 149,-73.7"/>
<polygon fill="#f5f5f5" stroke="transparent" points="151,-204.7 151,-227.7 375,-227.7 375,-204.7 151,-204.7"/>
<polygon fill="none" stroke="#000000" points="151,-204.7 151,-227.7 375,-227.7 375,-204.7 151,-204.7"/>
<text text-anchor="start" x="156" y="-213.8" font-family="Helvetica,sans-Serif" font-weight="bold" font-size="11.00" fill="#000000">commentaire</text>
<text text-anchor="start" x="340.0437" y="-212.8" font-family="Helvetica,sans-Serif" font-size="11.00" fill="#000000">[table]</text>
<polygon fill="none" stroke="#000000" points="151,-182.7 151,-204.7 264,-204.7 264,-182.7 151,-182.7"/>
<image xlink:href="../../images/primaryKeys.png" width="11px" height="12px" preserveAspectRatio="xMinYMin meet" x="156" y="-199.7"/>
<text text-anchor="start" x="171" y="-189.8" font-family="Helvetica,sans-Serif" font-size="11.00" fill="#000000">id</text>
<polygon fill="none" stroke="#000000" points="264,-182.7 264,-204.7 375,-204.7 375,-182.7 264,-182.7"/>
<text text-anchor="start" x="267" y="-190.4" font-family="Helvetica,sans-Serif" font-size="11.00" fill="#000000">int[10]</text>
<polygon fill="#ffffff" stroke="transparent" points="151,-160.7 151,-182.7 264,-182.7 264,-160.7 151,-160.7"/>
<polygon fill="none" stroke="#000000" points="151,-160.7 151,-182.7 264,-182.7 264,-160.7 151,-160.7"/>
<image xlink:href="../../images/foreignKeys.png" width="11px" height="12px" preserveAspectRatio="xMinYMin meet" x="156" y="-177.7"/>
<text text-anchor="start" x="171" y="-167.8" font-family="Helvetica,sans-Serif" font-size="11.00" fill="#000000">utilisateur_id_id</text>
<polygon fill="none" stroke="#000000" points="264,-160.7 264,-182.7 375,-182.7 375,-160.7 264,-160.7"/>
<text text-anchor="start" x="267" y="-168.4" font-family="Helvetica,sans-Serif" font-size="11.00" fill="#000000">int[10]</text>
<polygon fill="#ffffff" stroke="transparent" points="151,-138.7 151,-160.7 264,-160.7 264,-138.7 151,-138.7"/>
<polygon fill="none" stroke="#000000" points="151,-138.7 151,-160.7 264,-160.7 264,-138.7 151,-138.7"/>
<image xlink:href="../../images/foreignKeys.png" width="11px" height="12px" preserveAspectRatio="xMinYMin meet" x="156" y="-155.7"/>
<text text-anchor="start" x="171" y="-145.8" font-family="Helvetica,sans-Serif" font-size="11.00" fill="#000000">article_id_id</text>
<polygon fill="none" stroke="#000000" points="264,-138.7 264,-160.7 375,-160.7 375,-138.7 264,-138.7"/>
<text text-anchor="start" x="267" y="-146.4" font-family="Helvetica,sans-Serif" font-size="11.00" fill="#000000">int[10]</text>
<polygon fill="none" stroke="#000000" points="151,-116.7 151,-138.7 264,-138.7 264,-116.7 151,-116.7"/>
<text text-anchor="start" x="171" y="-123.8" font-family="Helvetica,sans-Serif" font-size="11.00" fill="#000000">contenu</text>
<polygon fill="none" stroke="#000000" points="264,-116.7 264,-138.7 375,-138.7 375,-116.7 264,-116.7"/>
<text text-anchor="start" x="266.6115" y="-124.4" font-family="Helvetica,sans-Serif" font-size="11.00" fill="#000000">longtext[2147483647]</text>
<polygon fill="none" stroke="#000000" points="151,-94.7 151,-116.7 264,-116.7 264,-94.7 151,-94.7"/>
<text text-anchor="start" x="171" y="-101.8" font-family="Helvetica,sans-Serif" font-size="11.00" fill="#000000">create_at</text>
<polygon fill="none" stroke="#000000" points="264,-94.7 264,-116.7 375,-116.7 375,-94.7 264,-94.7"/>
<text text-anchor="start" x="267" y="-102.4" font-family="Helvetica,sans-Serif" font-size="11.00" fill="#000000">datetime[19]</text>
<polygon fill="#ffffff" stroke="transparent" points="151,-75.7 151,-94.7 193,-94.7 193,-75.7 151,-75.7"/>
<polygon fill="none" stroke="#000000" points="151,-75.7 151,-94.7 193,-94.7 193,-75.7 151,-75.7"/>
<text text-anchor="start" x="154" y="-81.8" font-family="Helvetica,sans-Serif" font-size="11.00" fill="#000000">&lt; 2</text>
<polygon fill="#ffffff" stroke="transparent" points="193,-75.7 193,-94.7 264,-94.7 264,-75.7 193,-75.7"/>
<polygon fill="none" stroke="#000000" points="193,-75.7 193,-94.7 264,-94.7 264,-75.7 193,-75.7"/>
<text text-anchor="start" x="216.3807" y="-81.8" font-family="Helvetica,sans-Serif" font-size="11.00" fill="#000000">141 rows</text>
<polygon fill="#ffffff" stroke="transparent" points="264,-75.7 264,-94.7 375,-94.7 375,-75.7 264,-75.7"/>
<polygon fill="none" stroke="#000000" points="264,-75.7 264,-94.7 375,-94.7 375,-75.7 264,-75.7"/>
<text text-anchor="start" x="356.4053" y="-81.8" font-family="Helvetica,sans-Serif" font-size="11.00" fill="#000000">0 &gt;</text>
<polygon fill="none" stroke="#000000" stroke-width="2" points="150,-74.7 150,-228.7 376,-228.7 376,-74.7 150,-74.7"/>
</a>
</g>
</g>
<!-- article -->
<g id="node2" class="node">
<title>article</title>
<g id="a_node2"><a xlink:href="../../tables/article.html" xlink:title="article" target="_top">
<polygon fill="#ffffff" stroke="transparent" points="8,-38.2 8,-143.2 100,-143.2 100,-38.2 8,-38.2"/>
<polygon fill="#f5f5f5" stroke="transparent" points="8,-119.7 8,-142.7 100,-142.7 100,-119.7 8,-119.7"/>
<polygon fill="none" stroke="#000000" points="8,-119.7 8,-142.7 100,-142.7 100,-119.7 8,-119.7"/>
<text text-anchor="start" x="13" y="-128.8" font-family="Helvetica,sans-Serif" font-weight="bold" font-size="11.00" fill="#000000">article</text>
<text text-anchor="start" x="65.0437" y="-127.8" font-family="Helvetica,sans-Serif" font-size="11.00" fill="#000000">[table]</text>
<polygon fill="none" stroke="#000000" points="8,-97.7 8,-119.7 100,-119.7 100,-97.7 8,-97.7"/>
<image xlink:href="../../images/primaryKeys.png" width="11px" height="12px" preserveAspectRatio="xMinYMin meet" x="13" y="-114.7"/>
<text text-anchor="start" x="29" y="-104.8" font-family="Helvetica,sans-Serif" font-size="11.00" fill="#000000">id</text>
<polygon fill="#ffffff" stroke="transparent" points="8,-75.7 8,-97.7 100,-97.7 100,-75.7 8,-75.7"/>
<polygon fill="none" stroke="#000000" points="8,-75.7 8,-97.7 100,-97.7 100,-75.7 8,-75.7"/>
<image xlink:href="../../images/foreignKeys.png" width="11px" height="12px" preserveAspectRatio="xMinYMin meet" x="13" y="-92.7"/>
<text text-anchor="start" x="29" y="-82.8" font-family="Helvetica,sans-Serif" font-size="11.00" fill="#000000">categorie_id</text>
<polygon fill="none" stroke="#000000" points="8,-56.7 8,-75.7 100,-75.7 100,-56.7 8,-56.7"/>
<text text-anchor="start" x="11" y="-62.8" font-family="Helvetica,sans-Serif" font-size="11.00" fill="#000000">...</text>
<polygon fill="#ffffff" stroke="transparent" points="8,-37.7 8,-56.7 29,-56.7 29,-37.7 8,-37.7"/>
<polygon fill="none" stroke="#000000" points="8,-37.7 8,-56.7 29,-56.7 29,-37.7 8,-37.7"/>
<text text-anchor="start" x="10.7027" y="-43.8" font-family="Helvetica,sans-Serif" font-size="11.00" fill="#000000">&lt; 1</text>
<polygon fill="#ffffff" stroke="transparent" points="29,-37.7 29,-56.7 79,-56.7 79,-37.7 29,-37.7"/>
<polygon fill="none" stroke="#000000" points="29,-37.7 29,-56.7 79,-56.7 79,-37.7 29,-37.7"/>
<text text-anchor="start" x="31.6904" y="-43.8" font-family="Helvetica,sans-Serif" font-size="11.00" fill="#000000">101 rows</text>
<polygon fill="#ffffff" stroke="transparent" points="79,-37.7 79,-56.7 100,-56.7 100,-37.7 79,-37.7"/>
<polygon fill="none" stroke="#000000" points="79,-37.7 79,-56.7 100,-56.7 100,-37.7 79,-37.7"/>
<text text-anchor="start" x="81.7027" y="-43.8" font-family="Helvetica,sans-Serif" font-size="11.00" fill="#000000">1 &gt;</text>
</a>
</g>
</g>
<!-- commentaire&#45;&gt;article -->
<g id="edge1" class="edge">
<title>commentaire:w&#45;&gt;article:e</title>
<path fill="none" stroke="#000000" d="M137.1568,-145.3123C123.3325,-134.7354 123.1756,-108.7 100,-108.7"/>
<polygon fill="#000000" stroke="#000000" points="143.3739,-147.2828 149.9123,-153.1317 147.1869,-148.4914 151,-149.7 151,-149.7 151,-149.7 147.1869,-148.4914 152.0877,-146.2683 143.3739,-147.2828 143.3739,-147.2828"/>
<ellipse fill="none" stroke="#000000" cx="140.3235" cy="-146.3159" rx="3.2" ry="3.2"/>
</g>
<!-- utilisateur -->
<g id="node3" class="node">
<title>utilisateur</title>
<g id="a_node3"><a xlink:href="../../tables/utilisateur.html" xlink:title="utilisateur" target="_top">
<polygon fill="#ffffff" stroke="transparent" points="9,-164.2 9,-247.2 99,-247.2 99,-164.2 9,-164.2"/>
<polygon fill="#f5f5f5" stroke="transparent" points="9,-223.7 9,-246.7 99,-246.7 99,-223.7 9,-223.7"/>
<polygon fill="none" stroke="#000000" points="9,-223.7 9,-246.7 99,-246.7 99,-223.7 9,-223.7"/>
<text text-anchor="start" x="13.971" y="-232.8" font-family="Helvetica,sans-Serif" font-weight="bold" font-size="11.00" fill="#000000">utilisateur</text>
<text text-anchor="start" x="64.5219" y="-231.8" font-family="Helvetica,sans-Serif" font-size="11.00" fill="#000000">[table]</text>
<polygon fill="none" stroke="#000000" points="9,-201.7 9,-223.7 99,-223.7 99,-201.7 9,-201.7"/>
<image xlink:href="../../images/primaryKeys.png" width="11px" height="12px" preserveAspectRatio="xMinYMin meet" x="14" y="-218.7"/>
<text text-anchor="start" x="35" y="-208.8" font-family="Helvetica,sans-Serif" font-size="11.00" fill="#000000">id</text>
<polygon fill="none" stroke="#000000" points="9,-182.7 9,-201.7 99,-201.7 99,-182.7 9,-182.7"/>
<text text-anchor="start" x="12" y="-188.8" font-family="Helvetica,sans-Serif" font-size="11.00" fill="#000000">...</text>
<polygon fill="#ffffff" stroke="transparent" points="9,-163.7 9,-182.7 27,-182.7 27,-163.7 9,-163.7"/>
<polygon fill="none" stroke="#000000" points="9,-163.7 9,-182.7 27,-182.7 27,-163.7 9,-163.7"/>
<text text-anchor="start" x="12" y="-169.8" font-family="Helvetica,sans-Serif" font-size="11.00" fill="#000000"> &#160;</text>
<polygon fill="#ffffff" stroke="transparent" points="27,-163.7 27,-182.7 74,-182.7 74,-163.7 27,-163.7"/>
<polygon fill="none" stroke="#000000" points="27,-163.7 27,-182.7 74,-182.7 74,-163.7 27,-163.7"/>
<text text-anchor="start" x="32.4956" y="-169.8" font-family="Helvetica,sans-Serif" font-size="11.00" fill="#000000">11 rows</text>
<polygon fill="#ffffff" stroke="transparent" points="74,-163.7 74,-182.7 99,-182.7 99,-163.7 74,-163.7"/>
<polygon fill="none" stroke="#000000" points="74,-163.7 74,-182.7 99,-182.7 99,-163.7 74,-163.7"/>
<text text-anchor="start" x="80.4053" y="-169.8" font-family="Helvetica,sans-Serif" font-size="11.00" fill="#000000">1 &gt;</text>
</a>
</g>
</g>
<!-- commentaire&#45;&gt;utilisateur -->
<g id="edge2" class="edge">
<title>commentaire:w&#45;&gt;utilisateur:e</title>
<path fill="none" stroke="#000000" d="M136.9495,-176.0877C122.8593,-186.6646 122.4527,-212.7 99,-212.7"/>
<polygon fill="#000000" stroke="#000000" points="143.3637,-174.0847 152.0731,-175.1363 147.1818,-172.8924 151,-171.7 151,-171.7 151,-171.7 147.1818,-172.8924 149.9269,-168.2637 143.3637,-174.0847 143.3637,-174.0847"/>
<ellipse fill="none" stroke="#000000" cx="140.3092" cy="-175.0386" rx="3.2" ry="3.2"/>
</g>
</g>
</svg>
