<?xml version="1.0" encoding="UTF-8" standalone="no"?>
<!DOCTYPE svg PUBLIC "-//W3C//DTD SVG 1.1//EN"
 "http://www.w3.org/Graphics/SVG/1.1/DTD/svg11.dtd">
<!-- Generated by graphviz version 2.40.1 (20161225.0304)
 -->
<!-- Title: oneDegreeRelationshipsDiagram Pages: 1 -->
<svg width="335pt" height="205pt"
 viewBox="0.00 0.00 335.00 204.70" xmlns="http://www.w3.org/2000/svg" xmlns:xlink="http://www.w3.org/1999/xlink">
<g id="graph0" class="graph" transform="scale(1 1) rotate(0) translate(4 200.7)">
<title>oneDegreeRelationshipsDiagram</title>
<polygon fill="#ffffff" stroke="transparent" points="-4,4 -4,-200.7 331,-200.7 331,4 -4,4"/>
<text text-anchor="middle" x="72.4936" y="-7.3" font-family="Helvetica,sans-Serif" font-size="11.00" fill="#000000">Generated by SchemaSpy</text>
<!-- commentaire -->
<g id="node1" class="node">
<title>commentaire</title>
<g id="a_node1"><a xlink:href="../../tables/commentaire.html" xlink:title="commentaire" target="_top">
<polygon fill="#ffffff" stroke="transparent" points="206,-65.7 206,-192.7 319,-192.7 319,-65.7 206,-65.7"/>
<polygon fill="#f5f5f5" stroke="transparent" points="206.5,-169.2 206.5,-192.2 319.5,-192.2 319.5,-169.2 206.5,-169.2"/>
<polygon fill="none" stroke="#000000" points="206.5,-169.2 206.5,-192.2 319.5,-192.2 319.5,-169.2 206.5,-169.2"/>
<text text-anchor="start" x="211.5" y="-178.3" font-family="Helvetica,sans-Serif" font-weight="bold" font-size="11.00" fill="#000000">commentaire</text>
<text text-anchor="start" x="284.5437" y="-177.3" font-family="Helvetica,sans-Serif" font-size="11.00" fill="#000000">[table]</text>
<polygon fill="none" stroke="#000000" points="206.5,-147.2 206.5,-169.2 319.5,-169.2 319.5,-147.2 206.5,-147.2"/>
<image xlink:href="../../images/primaryKeys.png" width="11px" height="12px" preserveAspectRatio="xMinYMin meet" x="211.5" y="-164.2"/>
<text text-anchor="start" x="226.5" y="-154.3" font-family="Helvetica,sans-Serif" font-size="11.00" fill="#000000">id</text>
<polygon fill="#ffffff" stroke="transparent" points="206.5,-125.2 206.5,-147.2 319.5,-147.2 319.5,-125.2 206.5,-125.2"/>
<polygon fill="none" stroke="#000000" points="206.5,-125.2 206.5,-147.2 319.5,-147.2 319.5,-125.2 206.5,-125.2"/>
<image xlink:href="../../images/foreignKeys.png" width="11px" height="12px" preserveAspectRatio="xMinYMin meet" x="211.5" y="-142.2"/>
<text text-anchor="start" x="226.5" y="-132.3" font-family="Helvetica,sans-Serif" font-size="11.00" fill="#000000">utilisateur_id_id</text>
<polygon fill="#ffffff" stroke="transparent" points="206.5,-103.2 206.5,-125.2 319.5,-125.2 319.5,-103.2 206.5,-103.2"/>
<polygon fill="none" stroke="#000000" points="206.5,-103.2 206.5,-125.2 319.5,-125.2 319.5,-103.2 206.5,-103.2"/>
<image xlink:href="../../images/foreignKeys.png" width="11px" height="12px" preserveAspectRatio="xMinYMin meet" x="211.5" y="-120.2"/>
<text text-anchor="start" x="226.5" y="-110.3" font-family="Helvetica,sans-Serif" font-size="11.00" fill="#000000">article_id_id</text>
<polygon fill="none" stroke="#000000" points="206.5,-84.2 206.5,-103.2 319.5,-103.2 319.5,-84.2 206.5,-84.2"/>
<text text-anchor="start" x="209.5" y="-90.3" font-family="Helvetica,sans-Serif" font-size="11.00" fill="#000000">...</text>
<polygon fill="#ffffff" stroke="transparent" points="206.5,-65.2 206.5,-84.2 242.5,-84.2 242.5,-65.2 206.5,-65.2"/>
<polygon fill="none" stroke="#000000" points="206.5,-65.2 206.5,-84.2 242.5,-84.2 242.5,-65.2 206.5,-65.2"/>
<text text-anchor="start" x="209.5" y="-71.3" font-family="Helvetica,sans-Serif" font-size="11.00" fill="#000000">&lt; 2</text>
<polygon fill="#ffffff" stroke="transparent" points="242.5,-65.2 242.5,-84.2 299.5,-84.2 299.5,-65.2 242.5,-65.2"/>
<polygon fill="none" stroke="#000000" points="242.5,-65.2 242.5,-84.2 299.5,-84.2 299.5,-65.2 242.5,-65.2"/>
<text text-anchor="start" x="251.8807" y="-71.3" font-family="Helvetica,sans-Serif" font-size="11.00" fill="#000000">141 rows</text>
<polygon fill="#ffffff" stroke="transparent" points="299.5,-65.2 299.5,-84.2 319.5,-84.2 319.5,-65.2 299.5,-65.2"/>
<polygon fill="none" stroke="#000000" points="299.5,-65.2 299.5,-84.2 319.5,-84.2 319.5,-65.2 299.5,-65.2"/>
<text text-anchor="start" x="310.3862" y="-71.3" font-family="Helvetica,sans-Serif" font-size="11.00" fill="#000000"> &#160;</text>
</a>
</g>
</g>
<!-- utilisateur -->
<g id="node2" class="node">
<title>utilisateur</title>
<g id="a_node2"><a xlink:href="../../tables/utilisateur.html" xlink:title="utilisateur" target="_top">
<polygon fill="#ffffff" stroke="transparent" points="8,-38.2 8,-172.2 157,-172.2 157,-38.2 8,-38.2"/>
<polygon fill="#f5f5f5" stroke="transparent" points="10.5,-147.2 10.5,-170.2 155.5,-170.2 155.5,-147.2 10.5,-147.2"/>
<polygon fill="none" stroke="#000000" points="10.5,-147.2 10.5,-170.2 155.5,-170.2 155.5,-147.2 10.5,-147.2"/>
<text text-anchor="start" x="15.5" y="-156.3" font-family="Helvetica,sans-Serif" font-weight="bold" font-size="11.00" fill="#000000">utilisateur</text>
<text text-anchor="start" x="120.5437" y="-155.3" font-family="Helvetica,sans-Serif" font-size="11.00" fill="#000000">[table]</text>
<polygon fill="none" stroke="#000000" points="10.5,-125.2 10.5,-147.2 88.5,-147.2 88.5,-125.2 10.5,-125.2"/>
<image xlink:href="../../images/primaryKeys.png" width="11px" height="12px" preserveAspectRatio="xMinYMin meet" x="15.5" y="-142.2"/>
<text text-anchor="start" x="30.5" y="-132.3" font-family="Helvetica,sans-Serif" font-size="11.00" fill="#000000">id</text>
<polygon fill="none" stroke="#000000" points="88.5,-125.2 88.5,-147.2 155.5,-147.2 155.5,-125.2 88.5,-125.2"/>
<text text-anchor="start" x="91.5" y="-132.9" font-family="Helvetica,sans-Serif" font-size="11.00" fill="#000000">int[10]</text>
<polygon fill="none" stroke="#000000" points="10.5,-103.2 10.5,-125.2 88.5,-125.2 88.5,-103.2 10.5,-103.2"/>
<text text-anchor="start" x="30.5" y="-110.3" font-family="Helvetica,sans-Serif" font-size="11.00" fill="#000000">prenom</text>
<polygon fill="none" stroke="#000000" points="88.5,-103.2 88.5,-125.2 155.5,-125.2 155.5,-103.2 88.5,-103.2"/>
<text text-anchor="start" x="91.4365" y="-110.9" font-family="Helvetica,sans-Serif" font-size="11.00" fill="#000000">varchar[255]</text>
<polygon fill="none" stroke="#000000" points="10.5,-81.2 10.5,-103.2 88.5,-103.2 88.5,-81.2 10.5,-81.2"/>
<text text-anchor="start" x="30.5" y="-88.3" font-family="Helvetica,sans-Serif" font-size="11.00" fill="#000000">nom</text>
<polygon fill="none" stroke="#000000" points="88.5,-81.2 88.5,-103.2 155.5,-103.2 155.5,-81.2 88.5,-81.2"/>
<text text-anchor="start" x="91.4365" y="-88.9" font-family="Helvetica,sans-Serif" font-size="11.00" fill="#000000">varchar[255]</text>
<polygon fill="none" stroke="#000000" points="10.5,-59.2 10.5,-81.2 88.5,-81.2 88.5,-59.2 10.5,-59.2"/>
<text text-anchor="start" x="30.5" y="-66.3" font-family="Helvetica,sans-Serif" font-size="11.00" fill="#000000">pseudo</text>
<polygon fill="none" stroke="#000000" points="88.5,-59.2 88.5,-81.2 155.5,-81.2 155.5,-59.2 88.5,-59.2"/>
<text text-anchor="start" x="91.4365" y="-66.9" font-family="Helvetica,sans-Serif" font-size="11.00" fill="#000000">varchar[255]</text>
<polygon fill="#ffffff" stroke="transparent" points="10.5,-40.2 10.5,-59.2 37.5,-59.2 37.5,-40.2 10.5,-40.2"/>
<polygon fill="none" stroke="#000000" points="10.5,-40.2 10.5,-59.2 37.5,-59.2 37.5,-40.2 10.5,-40.2"/>
<text text-anchor="start" x="13.5" y="-46.3" font-family="Helvetica,sans-Serif" font-size="11.00" fill="#000000">&lt; 0</text>
<polygon fill="#ffffff" stroke="transparent" points="37.5,-40.2 37.5,-59.2 88.5,-59.2 88.5,-40.2 37.5,-40.2"/>
<polygon fill="none" stroke="#000000" points="37.5,-40.2 37.5,-59.2 88.5,-59.2 88.5,-40.2 37.5,-40.2"/>
<text text-anchor="start" x="46.9956" y="-46.3" font-family="Helvetica,sans-Serif" font-size="11.00" fill="#000000">11 rows</text>
<polygon fill="#ffffff" stroke="transparent" points="88.5,-40.2 88.5,-59.2 155.5,-59.2 155.5,-40.2 88.5,-40.2"/>
<polygon fill="none" stroke="#000000" points="88.5,-40.2 88.5,-59.2 155.5,-59.2 155.5,-40.2 88.5,-40.2"/>
<text text-anchor="start" x="136.9053" y="-46.3" font-family="Helvetica,sans-Serif" font-size="11.00" fill="#000000">1 &gt;</text>
<polygon fill="none" stroke="#000000" stroke-width="2" points="9,-39.2 9,-171.2 156,-171.2 156,-39.2 9,-39.2"/>
</a>
</g>
</g>
<!-- commentaire&#45;&gt;utilisateur -->
<g id="edge1" class="edge">
<title>commentaire:w&#45;&gt;utilisateur:e</title>
<path fill="none" stroke="#000000" d="M191.776,-136.2C179.7815,-136.2 172.3229,-136.2 155.5,-136.2"/>
<polygon fill="#000000" stroke="#000000" points="198.5,-136.2001 206.5,-139.8 202.5,-136.2 206.5,-136.2 206.5,-136.2 206.5,-136.2 202.5,-136.2 206.5,-132.6 198.5,-136.2001 198.5,-136.2001"/>
<ellipse fill="none" stroke="#000000" cx="195.3" cy="-136.2001" rx="3.2" ry="3.2"/>
</g>
</g>
</svg>
