<?xml version="1.0" encoding="UTF-8" standalone="no"?>
<!DOCTYPE svg PUBLIC "-//W3C//DTD SVG 1.1//EN"
 "http://www.w3.org/Graphics/SVG/1.1/DTD/svg11.dtd">
<!-- Generated by graphviz version 2.40.1 (20161225.0304)
 -->
<!-- Title: twoDegreesRelationshipsDiagram Pages: 1 -->
<svg width="335pt" height="267pt"
 viewBox="0.00 0.00 335.00 266.70" xmlns="http://www.w3.org/2000/svg" xmlns:xlink="http://www.w3.org/1999/xlink">
<g id="graph0" class="graph" transform="scale(1 1) rotate(0) translate(4 262.7)">
<title>twoDegreesRelationshipsDiagram</title>
<polygon fill="#ffffff" stroke="transparent" points="-4,4 -4,-262.7 331,-262.7 331,4 -4,4"/>
<text text-anchor="middle" x="72.4936" y="-7.3" font-family="Helvetica,sans-Serif" font-size="11.00" fill="#000000">Generated by SchemaSpy</text>
<!-- commentaire -->
<g id="node1" class="node">
<title>commentaire</title>
<g id="a_node1"><a xlink:href="../../tables/commentaire.html" xlink:title="commentaire" target="_top">
<polygon fill="#ffffff" stroke="transparent" points="206,-82.2 206,-209.2 319,-209.2 319,-82.2 206,-82.2"/>
<polygon fill="#f5f5f5" stroke="transparent" points="206.5,-185.7 206.5,-208.7 319.5,-208.7 319.5,-185.7 206.5,-185.7"/>
<polygon fill="none" stroke="#000000" points="206.5,-185.7 206.5,-208.7 319.5,-208.7 319.5,-185.7 206.5,-185.7"/>
<text text-anchor="start" x="211.5" y="-194.8" font-family="Helvetica,sans-Serif" font-weight="bold" font-size="11.00" fill="#000000">commentaire</text>
<text text-anchor="start" x="284.5437" y="-193.8" font-family="Helvetica,sans-Serif" font-size="11.00" fill="#000000">[table]</text>
<polygon fill="none" stroke="#000000" points="206.5,-163.7 206.5,-185.7 319.5,-185.7 319.5,-163.7 206.5,-163.7"/>
<image xlink:href="../../images/primaryKeys.png" width="11px" height="12px" preserveAspectRatio="xMinYMin meet" x="211.5" y="-180.7"/>
<text text-anchor="start" x="226.5" y="-170.8" font-family="Helvetica,sans-Serif" font-size="11.00" fill="#000000">id</text>
<polygon fill="#ffffff" stroke="transparent" points="206.5,-141.7 206.5,-163.7 319.5,-163.7 319.5,-141.7 206.5,-141.7"/>
<polygon fill="none" stroke="#000000" points="206.5,-141.7 206.5,-163.7 319.5,-163.7 319.5,-141.7 206.5,-141.7"/>
<image xlink:href="../../images/foreignKeys.png" width="11px" height="12px" preserveAspectRatio="xMinYMin meet" x="211.5" y="-158.7"/>
<text text-anchor="start" x="226.5" y="-148.8" font-family="Helvetica,sans-Serif" font-size="11.00" fill="#000000">utilisateur_id_id</text>
<polygon fill="#ffffff" stroke="transparent" points="206.5,-119.7 206.5,-141.7 319.5,-141.7 319.5,-119.7 206.5,-119.7"/>
<polygon fill="none" stroke="#000000" points="206.5,-119.7 206.5,-141.7 319.5,-141.7 319.5,-119.7 206.5,-119.7"/>
<image xlink:href="../../images/foreignKeys.png" width="11px" height="12px" preserveAspectRatio="xMinYMin meet" x="211.5" y="-136.7"/>
<text text-anchor="start" x="226.5" y="-126.8" font-family="Helvetica,sans-Serif" font-size="11.00" fill="#000000">article_id_id</text>
<polygon fill="none" stroke="#000000" points="206.5,-100.7 206.5,-119.7 319.5,-119.7 319.5,-100.7 206.5,-100.7"/>
<text text-anchor="start" x="209.5" y="-106.8" font-family="Helvetica,sans-Serif" font-size="11.00" fill="#000000">...</text>
<polygon fill="#ffffff" stroke="transparent" points="206.5,-81.7 206.5,-100.7 242.5,-100.7 242.5,-81.7 206.5,-81.7"/>
<polygon fill="none" stroke="#000000" points="206.5,-81.7 206.5,-100.7 242.5,-100.7 242.5,-81.7 206.5,-81.7"/>
<text text-anchor="start" x="209.5" y="-87.8" font-family="Helvetica,sans-Serif" font-size="11.00" fill="#000000">&lt; 2</text>
<polygon fill="#ffffff" stroke="transparent" points="242.5,-81.7 242.5,-100.7 299.5,-100.7 299.5,-81.7 242.5,-81.7"/>
<polygon fill="none" stroke="#000000" points="242.5,-81.7 242.5,-100.7 299.5,-100.7 299.5,-81.7 242.5,-81.7"/>
<text text-anchor="start" x="251.8807" y="-87.8" font-family="Helvetica,sans-Serif" font-size="11.00" fill="#000000">141 rows</text>
<polygon fill="#ffffff" stroke="transparent" points="299.5,-81.7 299.5,-100.7 319.5,-100.7 319.5,-81.7 299.5,-81.7"/>
<polygon fill="none" stroke="#000000" points="299.5,-81.7 299.5,-100.7 319.5,-100.7 319.5,-81.7 299.5,-81.7"/>
<text text-anchor="start" x="310.3862" y="-87.8" font-family="Helvetica,sans-Serif" font-size="11.00" fill="#000000"> &#160;</text>
</a>
</g>
</g>
<!-- article -->
<g id="node2" class="node">
<title>article</title>
<g id="a_node2"><a xlink:href="../../tables/article.html" xlink:title="article" target="_top">
<polygon fill="#ffffff" stroke="transparent" points="36.5,-38.2 36.5,-99.2 128.5,-99.2 128.5,-38.2 36.5,-38.2"/>
<polygon fill="#f5f5f5" stroke="transparent" points="36.5,-75.7 36.5,-98.7 128.5,-98.7 128.5,-75.7 36.5,-75.7"/>
<polygon fill="none" stroke="#000000" points="36.5,-75.7 36.5,-98.7 128.5,-98.7 128.5,-75.7 36.5,-75.7"/>
<text text-anchor="start" x="41.5" y="-84.8" font-family="Helvetica,sans-Serif" font-weight="bold" font-size="11.00" fill="#000000">article</text>
<text text-anchor="start" x="93.5437" y="-83.8" font-family="Helvetica,sans-Serif" font-size="11.00" fill="#000000">[table]</text>
<polygon fill="none" stroke="#000000" points="36.5,-56.7 36.5,-75.7 128.5,-75.7 128.5,-56.7 36.5,-56.7"/>
<text text-anchor="start" x="39.5" y="-62.8" font-family="Helvetica,sans-Serif" font-size="11.00" fill="#000000">...</text>
<polygon fill="#ffffff" stroke="transparent" points="36.5,-37.7 36.5,-56.7 57.5,-56.7 57.5,-37.7 36.5,-37.7"/>
<polygon fill="none" stroke="#000000" points="36.5,-37.7 36.5,-56.7 57.5,-56.7 57.5,-37.7 36.5,-37.7"/>
<text text-anchor="start" x="39.2027" y="-43.8" font-family="Helvetica,sans-Serif" font-size="11.00" fill="#000000">&lt; 1</text>
<polygon fill="#ffffff" stroke="transparent" points="57.5,-37.7 57.5,-56.7 107.5,-56.7 107.5,-37.7 57.5,-37.7"/>
<polygon fill="none" stroke="#000000" points="57.5,-37.7 57.5,-56.7 107.5,-56.7 107.5,-37.7 57.5,-37.7"/>
<text text-anchor="start" x="60.1904" y="-43.8" font-family="Helvetica,sans-Serif" font-size="11.00" fill="#000000">101 rows</text>
<polygon fill="#ffffff" stroke="transparent" points="107.5,-37.7 107.5,-56.7 128.5,-56.7 128.5,-37.7 107.5,-37.7"/>
<polygon fill="none" stroke="#000000" points="107.5,-37.7 107.5,-56.7 128.5,-56.7 128.5,-37.7 107.5,-37.7"/>
<text text-anchor="start" x="110.2027" y="-43.8" font-family="Helvetica,sans-Serif" font-size="11.00" fill="#000000">1 &gt;</text>
</a>
</g>
</g>
<!-- commentaire&#45;&gt;article -->
<g id="edge1" class="edge">
<title>commentaire:w&#45;&gt;article:e</title>
<path fill="none" stroke="#000000" d="M192.0432,-127.907C163.5405,-115.4656 167.9852,-65.7 128.5,-65.7"/>
<polygon fill="#000000" stroke="#000000" points="198.6452,-129.1825 205.8171,-134.2346 202.5726,-129.9412 206.5,-130.7 206.5,-130.7 206.5,-130.7 202.5726,-129.9412 207.1829,-127.1654 198.6452,-129.1825 198.6452,-129.1825"/>
<ellipse fill="none" stroke="#000000" cx="195.5033" cy="-128.5754" rx="3.2" ry="3.2"/>
</g>
<!-- utilisateur -->
<g id="node3" class="node">
<title>utilisateur</title>
<g id="a_node3"><a xlink:href="../../tables/utilisateur.html" xlink:title="utilisateur" target="_top">
<polygon fill="#ffffff" stroke="transparent" points="8,-120.7 8,-254.7 157,-254.7 157,-120.7 8,-120.7"/>
<polygon fill="#f5f5f5" stroke="transparent" points="10.5,-229.7 10.5,-252.7 155.5,-252.7 155.5,-229.7 10.5,-229.7"/>
<polygon fill="none" stroke="#000000" points="10.5,-229.7 10.5,-252.7 155.5,-252.7 155.5,-229.7 10.5,-229.7"/>
<text text-anchor="start" x="15.5" y="-238.8" font-family="Helvetica,sans-Serif" font-weight="bold" font-size="11.00" fill="#000000">utilisateur</text>
<text text-anchor="start" x="120.5437" y="-237.8" font-family="Helvetica,sans-Serif" font-size="11.00" fill="#000000">[table]</text>
<polygon fill="none" stroke="#000000" points="10.5,-207.7 10.5,-229.7 88.5,-229.7 88.5,-207.7 10.5,-207.7"/>
<image xlink:href="../../images/primaryKeys.png" width="11px" height="12px" preserveAspectRatio="xMinYMin meet" x="15.5" y="-224.7"/>
<text text-anchor="start" x="30.5" y="-214.8" font-family="Helvetica,sans-Serif" font-size="11.00" fill="#000000">id</text>
<polygon fill="none" stroke="#000000" points="88.5,-207.7 88.5,-229.7 155.5,-229.7 155.5,-207.7 88.5,-207.7"/>
<text text-anchor="start" x="91.5" y="-215.4" font-family="Helvetica,sans-Serif" font-size="11.00" fill="#000000">int[10]</text>
<polygon fill="none" stroke="#000000" points="10.5,-185.7 10.5,-207.7 88.5,-207.7 88.5,-185.7 10.5,-185.7"/>
<text text-anchor="start" x="30.5" y="-192.8" font-family="Helvetica,sans-Serif" font-size="11.00" fill="#000000">prenom</text>
<polygon fill="none" stroke="#000000" points="88.5,-185.7 88.5,-207.7 155.5,-207.7 155.5,-185.7 88.5,-185.7"/>
<text text-anchor="start" x="91.4365" y="-193.4" font-family="Helvetica,sans-Serif" font-size="11.00" fill="#000000">varchar[255]</text>
<polygon fill="none" stroke="#000000" points="10.5,-163.7 10.5,-185.7 88.5,-185.7 88.5,-163.7 10.5,-163.7"/>
<text text-anchor="start" x="30.5" y="-170.8" font-family="Helvetica,sans-Serif" font-size="11.00" fill="#000000">nom</text>
<polygon fill="none" stroke="#000000" points="88.5,-163.7 88.5,-185.7 155.5,-185.7 155.5,-163.7 88.5,-163.7"/>
<text text-anchor="start" x="91.4365" y="-171.4" font-family="Helvetica,sans-Serif" font-size="11.00" fill="#000000">varchar[255]</text>
<polygon fill="none" stroke="#000000" points="10.5,-141.7 10.5,-163.7 88.5,-163.7 88.5,-141.7 10.5,-141.7"/>
<text text-anchor="start" x="30.5" y="-148.8" font-family="Helvetica,sans-Serif" font-size="11.00" fill="#000000">pseudo</text>
<polygon fill="none" stroke="#000000" points="88.5,-141.7 88.5,-163.7 155.5,-163.7 155.5,-141.7 88.5,-141.7"/>
<text text-anchor="start" x="91.4365" y="-149.4" font-family="Helvetica,sans-Serif" font-size="11.00" fill="#000000">varchar[255]</text>
<polygon fill="#ffffff" stroke="transparent" points="10.5,-122.7 10.5,-141.7 37.5,-141.7 37.5,-122.7 10.5,-122.7"/>
<polygon fill="none" stroke="#000000" points="10.5,-122.7 10.5,-141.7 37.5,-141.7 37.5,-122.7 10.5,-122.7"/>
<text text-anchor="start" x="13.5" y="-128.8" font-family="Helvetica,sans-Serif" font-size="11.00" fill="#000000">&lt; 0</text>
<polygon fill="#ffffff" stroke="transparent" points="37.5,-122.7 37.5,-141.7 88.5,-141.7 88.5,-122.7 37.5,-122.7"/>
<polygon fill="none" stroke="#000000" points="37.5,-122.7 37.5,-141.7 88.5,-141.7 88.5,-122.7 37.5,-122.7"/>
<text text-anchor="start" x="46.9956" y="-128.8" font-family="Helvetica,sans-Serif" font-size="11.00" fill="#000000">11 rows</text>
<polygon fill="#ffffff" stroke="transparent" points="88.5,-122.7 88.5,-141.7 155.5,-141.7 155.5,-122.7 88.5,-122.7"/>
<polygon fill="none" stroke="#000000" points="88.5,-122.7 88.5,-141.7 155.5,-141.7 155.5,-122.7 88.5,-122.7"/>
<text text-anchor="start" x="136.9053" y="-128.8" font-family="Helvetica,sans-Serif" font-size="11.00" fill="#000000">1 &gt;</text>
<polygon fill="none" stroke="#000000" stroke-width="2" points="9,-121.7 9,-253.7 156,-253.7 156,-121.7 9,-121.7"/>
</a>
</g>
</g>
<!-- commentaire&#45;&gt;utilisateur -->
<g id="edge2" class="edge">
<title>commentaire:w&#45;&gt;utilisateur:e</title>
<path fill="none" stroke="#000000" d="M192.5846,-157.4466C175.402,-172.5798 186.4886,-218.7 155.5,-218.7"/>
<polygon fill="#000000" stroke="#000000" points="198.9284,-155.2827 207.6622,-156.1072 202.7142,-153.9914 206.5,-152.7 206.5,-152.7 206.5,-152.7 202.7142,-153.9914 205.3378,-149.2928 198.9284,-155.2827 198.9284,-155.2827"/>
<ellipse fill="none" stroke="#000000" cx="195.8997" cy="-156.3158" rx="3.2" ry="3.2"/>
</g>
</g>
</svg>
